# xmcd
#
# Track frame offsets:
#	150
#	19645
#	38300
#	55389
#	79999
#	95565
#	118407
#	129673
#	147376
#	164344
#	181738
#	208230
#
# Disc length: 3008 seconds
#
# Revision: 1
# Processed by: cddbd v1.5PL3 Copyright (c) Steve Scherf et al.
# Submitted via: audiograbber 1.82.02
#
DISCID=a80bbe0c
DTITLE=Kate Meehan - Soulshaker
DYEAR=2002
DGENRE=Blues
TTITLE0=Second Hand Man
TTITLE1=Black Cat
TTITLE2=Soul Shake
TTITLE3=Out Of Love
TTITLE4=Feet Start Walking
TTITLE5=Rock Me Right
TTITLE6=God's Gift To Women
TTITLE7=Call Me Mrs. Blues
TTITLE8=Smackwater Jack
TTITLE9=Off The Clock
TTITLE10=Final Verdict
TTITLE11=Move Over
EXTD=
EXTT0=
EXTT1=
EXTT2=
EXTT3=
EXTT4=
EXTT5=
EXTT6=
EXTT7=
EXTT8=
EXTT9=
EXTT10=
EXTT11=
PLAYORDER=
